<?xml version="1.0" encoding="utf-8"?>
<!-- Generator: Adobe Illustrator 26.0.1, SVG Export Plug-In . SVG Version: 6.00 Build 0)  -->
<svg version="1.1" id="Calque_1" xmlns="http://www.w3.org/2000/svg" xmlns:xlink="http://www.w3.org/1999/xlink" x="0px" y="0px"
	 viewBox="0 0 864 76.9" style="enable-background:new 0 0 864 76.9;" xml:space="preserve">
<style type="text/css">
	.st0{fill:#E77121;}
	.st1{font-family:'FONTSPRINGDEMO-GibsonRegular';}
	.st2{font-size:68px;}
	.st3{letter-spacing:19;}
	.st4{fill:#E4E4E4;}
</style>
<rect x="407" class="st0" width="457" height="76.9"/>
<text transform="matrix(1 0 0 1 -1.602173e-04 62.1881)" class="st0 st1 st2 st3">CUISINE</text>
<g>
	<path class="st4" d="M460.9,56.1c-2.9,3.3-8.3,6.9-17.3,6.9c-13.8,0-24.2-9.6-24.2-24.2s10.6-24.2,24.2-24.2
		c8.8,0,14.2,3.7,16.8,6.2l-2.8,5.3c-1.9-2.3-7.1-5.7-13.7-5.7c-10.2,0-17.6,7.3-17.6,18.3S433.7,57,443.9,57c6.2,0,11-2.4,14.1-5.7
		L460.9,56.1z"/>
	<path class="st4" d="M508.2,63c-13.3,0-24.4-9.2-24.4-24.2s11.1-24.2,24.4-24.2c13.3,0,24.4,9.2,24.4,24.2S521.5,63,508.2,63z
		 M508.2,20.3c-9.7,0-17.6,6.9-17.6,18.4c0,11.4,8,18.4,17.6,18.4c9.7,0,17.6-6.9,17.6-18.4C525.8,27.2,517.9,20.3,508.2,20.3z"/>
	<path class="st4" d="M600.8,62.2h-6.5L567,24.8c0,0,0.1,6.3,0.1,12.4v25h-6.6V15.3h7l26.8,36.9c0,0-0.1-5.8-0.1-12V15.3h6.5V62.2z"
		/>
	<path class="st4" d="M671.6,62.2h-6.5l-27.3-37.4c0,0,0.1,6.3,0.1,12.4v25h-6.6V15.3h7l26.8,36.9c0,0-0.1-5.8-0.1-12V15.3h6.5V62.2
		z"/>
	<path class="st4" d="M730.5,62.2h-28.2V15.3H730v5.5h-21v14h19.9v5.5h-19.9v16.3h21.6V62.2z"/>
	<path class="st4" d="M797.6,56.1c-2.9,3.3-8.3,6.9-17.3,6.9c-13.8,0-24.2-9.6-24.2-24.2s10.6-24.2,24.2-24.2
		c8.8,0,14.2,3.7,16.8,6.2l-2.8,5.3c-1.9-2.3-7.1-5.7-13.7-5.7c-10.2,0-17.6,7.3-17.6,18.3S770.5,57,780.6,57c6.2,0,11-2.4,14.1-5.7
		L797.6,56.1z"/>
	<path class="st4" d="M853.2,20.8h-13.3v41.4h-6.7V20.8h-13.4v-5.5h33.3V20.8z"/>
</g>
</svg>
